<svg xmlns="http://www.w3.org/2000/svg" viewBox="0 0 512 512" width="200" height="200">
  <style>
    .folder { fill: #FFD54F; }
    .folder-back { fill: #FFC107; }
    .paper { fill: #FFFFFF; }
    .paper-lines { fill: #E0E0E0; }
    .shadow { fill: #BDBDBD; opacity: 0.3; }
  </style>
  <g>
    <!-- Shadow -->
    <ellipse class="shadow" cx="256" cy="448" rx="180" ry="20"/>
    
    <!-- Folder Back -->
    <path class="folder-back" d="M448,128H272l-32-32H96c-17.7,0-32,14.3-32,32v256c0,17.7,14.3,32,32,32h352c17.7,0,32-14.3,32-32V160
      C480,142.3,465.7,128,448,128z"/>
    
    <!-- Folder Front -->
    <path class="folder" d="M448,160H96c-17.7,0-32,14.3-32,32v192c0,17.7,14.3,32,32,32h352c17.7,0,32-14.3,32-32V192
      C480,174.3,465.7,160,448,160z"/>
    
    <!-- Papers -->
    <g transform="translate(180, 180)">
      <!-- Paper 1 -->
      <rect class="paper" x="-40" y="-30" width="120" height="150" rx="8"/>
      <rect class="paper-lines" x="-20" y="0" width="80" height="4" rx="2"/>
      <rect class="paper-lines" x="-20" y="20" width="80" height="4" rx="2"/>
      <rect class="paper-lines" x="-20" y="40" width="60" height="4" rx="2"/>
      <rect class="paper-lines" x="-20" y="60" width="70" height="4" rx="2"/>
      
      <!-- Paper 2 (tilted) -->
      <g transform="rotate(15) translate(10, -10)">
        <rect class="paper" x="-40" y="-30" width="120" height="150" rx="8"/>
        <rect class="paper-lines" x="-20" y="0" width="80" height="4" rx="2"/>
        <rect class="paper-lines" x="-20" y="20" width="80" height="4" rx="2"/>
        <rect class="paper-lines" x="-20" y="40" width="60" height="4" rx="2"/>
      </g>
    </g>
  </g>
</svg>
